<?xml version="1.0" encoding="UTF-8" standalone="no"?>
<svg
   xmlns:dc="http://purl.org/dc/elements/1.1/"
   xmlns:cc="http://creativecommons.org/ns#"
   xmlns:rdf="http://www.w3.org/1999/02/22-rdf-syntax-ns#"
   xmlns:svg="http://www.w3.org/2000/svg"
   xmlns="http://www.w3.org/2000/svg"
   id="svg8"
   version="1.1"
   viewBox="0 0 26.159549 26.322295"
   height="26.322294mm"
   width="26.15955mm">
  <defs
     id="defs2" />
  <metadata
     id="metadata5">
    <rdf:RDF>
      <cc:Work
         rdf:about="">
        <dc:format>image/svg+xml</dc:format>
        <dc:type
           rdf:resource="http://purl.org/dc/dcmitype/StillImage" />
        <dc:title></dc:title>
      </cc:Work>
    </rdf:RDF>
  </metadata>
  <g
     transform="translate(-70.409849,-37.337436)"
     id="layer1">
    <path
       id="path3761"
       d="m 81.110697,63.503735 c -5.25476,-1.162415 -8.98336,-4.749052 -10.31069,-9.918137 -1.1674,-4.546259 0.3272,-9.409068 3.91723,-12.745062 3.28471,-3.052281 7.44169,-4.155599 11.7928,-3.12997 6.813,1.605939 11.22799,8.607876 9.7864,15.520722 -0.9224,4.423219 -4.31029,8.266058 -8.59251,9.746377 -1.77918,0.615043 -5.02152,0.873747 -6.59323,0.52607 z m -1.98193,-5.698296 c 0.29495,-0.3554 0.36662,-0.352204 0.64519,0.02877 0.34926,0.477639 1.23264,0.419724 1.40301,-0.09198 0.0653,-0.1962 -0.12134,-0.330729 -0.45892,-0.330729 -0.41701,0 -0.53296,-0.123711 -0.434,-0.463021 0.0743,-0.254661 0.21716,-1.043755 0.31752,-1.753541 0.23853,-1.687044 -0.28617,-1.574935 -0.96203,0.205548 -0.63508,1.673037 -1.2611,2.378453 -1.75039,1.972377 -0.44391,-0.368409 -0.73671,-0.131246 -0.5236,0.424101 0.20087,0.523473 1.3313,0.528907 1.76322,0.0085 z m 4.2557,0.121951 c 0.28555,-0.152822 0.44909,-0.391269 0.36342,-0.529882 -0.0984,-0.159223 -0.33189,-0.157763 -0.63408,0.004 -0.26308,0.140794 -0.55351,0.180804 -0.6454,0.08891 -0.37319,-0.373187 -0.12333,-0.881671 0.62284,-1.267528 0.43445,-0.224666 0.86408,-0.703973 0.95472,-1.065129 0.118,-0.470155 0.34452,-0.656645 0.79758,-0.656645 0.34803,0 0.62987,0.0893 0.62631,0.198437 -0.008,0.251573 -0.49676,2.429184 -0.68265,3.042709 -0.09,0.297121 0.002,0.46302 0.25544,0.46302 0.2642,0 0.50487,-0.487669 0.72409,-1.467285 0.1806,-0.807006 0.42207,-1.525194 0.53659,-1.595973 0.11452,-0.07078 0.14698,-0.288279 0.0721,-0.483335 -0.0988,-0.257429 0.0494,-0.31918 0.54072,-0.225266 0.88208,0.16862 0.89454,-0.396747 0.0136,-0.617844 -0.36476,-0.09155 -1.1089,-0.07078 -1.65365,0.04616 -0.54474,0.116935 -1.36996,0.181107 -1.83382,0.142605 -0.69348,-0.05756 -0.91119,0.06266 -1.22491,0.676406 -1.203,2.353523 -0.55137,4.166346 1.16705,3.246677 z m -0.54185,-2.919802 c 0.16244,-0.303505 0.35993,-0.487234 0.43887,-0.408286 0.21809,0.218086 -0.13124,0.960113 -0.452,0.960113 -0.19567,0 -0.19165,-0.16919 0.0131,-0.551827 z m 5.941,2.933077 c 0.0899,-0.145521 -0.0221,-0.264583 -0.24897,-0.264583 -0.22687,0 -0.41249,0.119062 -0.41249,0.264583 0,0.145521 0.11204,0.264584 0.24897,0.264584 0.13693,0 0.32255,-0.119063 0.41249,-0.264584 z m 0.35114,-2.477901 c 0.33506,-1.818398 0.4075,-3.263721 0.15072,-3.00694 -0.13388,0.133881 -0.87723,3.871444 -0.89353,4.492654 -0.003,0.10914 0.0933,0.198437 0.21365,0.198437 0.12036,0 0.35849,-0.757868 0.52916,-1.684151 z m -1.42323,-4.548874 c 1.16119,-0.760837 1.99813,-2.874304 1.99813,-5.045699 0,-1.811125 -0.0415,-1.94393 -0.76844,-2.461592 -1.60501,-1.142863 -3.58205,-0.494527 -4.56227,1.49612 -0.49122,0.997567 -0.62241,1.696192 -0.62241,3.314509 v 2.050521 h -1.15497 -1.15496 l 0.18868,-1.510149 c 0.10377,-0.830582 0.40425,-2.348629 0.66772,-3.373437 0.71875,-2.795689 -0.0998,-3.134983 -1.51861,-0.629489 -0.43979,0.776618 -1.0523,1.638846 -1.36113,1.916061 -0.96674,0.867758 -0.56549,1.784289 0.52552,1.200397 0.5559,-0.297508 0.56445,-0.275257 0.37658,0.979952 -0.25016,1.671423 -0.25881,1.681248 -1.47924,1.681248 -0.75047,0 -1.04272,0.111234 -1.04272,0.396875 0,0.329652 0.51274,0.396875 3.0271,0.396875 1.6649,0 3.09566,-0.110956 3.17948,-0.246568 0.088,-0.142466 0.45769,-0.08271 0.87551,0.141533 0.81522,0.437526 1.86337,0.323605 2.82603,-0.307157 z m -2.49047,-0.893331 c -0.40565,-0.75796 -0.3321,-3.070079 0.13307,-4.183396 0.5477,-1.310839 1.13978,-1.919414 1.86738,-1.919414 0.88998,0 1.12845,0.536124 1.17825,2.648843 0.0287,1.216178 -0.41134,2.338096 -1.26997,3.238136 -0.81358,0.852816 -1.52479,0.933237 -1.90873,0.215831 z"
       style="fill:#9a1919;stroke-width:0.26458335" />
  </g>
</svg>
