<?xml version="1.0" encoding="UTF-8" standalone="no"?>
<!-- Created with Inkscape (http://www.inkscape.org/) -->

<svg
   xmlns:dc="http://purl.org/dc/elements/1.1/"
   xmlns:cc="http://creativecommons.org/ns#"
   xmlns:rdf="http://www.w3.org/1999/02/22-rdf-syntax-ns#"
   xmlns:svg="http://www.w3.org/2000/svg"
   xmlns="http://www.w3.org/2000/svg"
   xmlns:sodipodi="http://sodipodi.sourceforge.net/DTD/sodipodi-0.dtd"
   xmlns:inkscape="http://www.inkscape.org/namespaces/inkscape"
   width="26.383366mm"
   height="26.414249mm"
   viewBox="0 0 26.383365 26.41425"
   version="1.1"
   id="svg8"
   inkscape:version="0.92.4 (5da689c313, 2019-01-14)"
   sodipodi:docname="s_2__4.svg">
  <defs
     id="defs2" />
  <sodipodi:namedview
     id="base"
     pagecolor="#ffffff"
     bordercolor="#666666"
     borderopacity="1.0"
     inkscape:pageopacity="0.0"
     inkscape:pageshadow="2"
     inkscape:zoom="0.76015625"
     inkscape:cx="-101.64703"
     inkscape:cy="149.21826"
     inkscape:document-units="mm"
     inkscape:current-layer="layer1"
     showgrid="false"
     fit-margin-top="0"
     fit-margin-left="0"
     fit-margin-right="0"
     fit-margin-bottom="0"
     inkscape:window-width="1366"
     inkscape:window-height="705"
     inkscape:window-x="-8"
     inkscape:window-y="-8"
     inkscape:window-maximized="1" />
  <metadata
     id="metadata5">
    <rdf:RDF>
      <cc:Work
         rdf:about="">
        <dc:format>image/svg+xml</dc:format>
        <dc:type
           rdf:resource="http://purl.org/dc/dcmitype/StillImage" />
        <dc:title></dc:title>
      </cc:Work>
    </rdf:RDF>
  </metadata>
  <g
     inkscape:label="Layer 1"
     inkscape:groupmode="layer"
     id="layer1"
     transform="translate(-70.075851,-36.596562)">
    <path
       style="fill:#9b1a1a;stroke-width:0.26458332"
       d="m 81.08949,62.754724 c -5.78425,-1.362754 -9.161533,-7.459261 -7.33686,-13.244146 1.376717,-4.364703 5.048309,-6.978519 9.788365,-6.968364 1.966994,0.0042 2.471236,0.109516 4.021855,0.839892 2.255012,1.062161 3.989173,2.794671 5.060128,5.05531 0.760835,1.606017 0.83971,2.009491 0.837953,4.286438 -0.0017,2.272397 -0.08262,2.68424 -0.842871,4.292802 -2.078822,4.398422 -6.94159,6.818748 -11.52857,5.738068 z m 2.051281,-2.352535 c 0.100824,-0.163136 0.35204,-0.139342 0.677988,0.06422 0.382118,0.238636 0.638914,0.247192 0.979922,0.03265 0.379294,-0.238631 0.475798,-0.758034 0.538509,-2.898377 0.06412,-2.188607 0.159789,-2.685331 0.595312,-3.091082 0.439218,-0.409194 0.51891,-0.839431 0.51891,-2.801464 0,-1.450132 -0.118875,-2.436902 -0.3175,-2.635527 -0.568675,-0.568674 -1.715465,-0.371815 -2.270193,0.389704 l -0.515162,0.707203 -0.463377,-0.707203 c -0.311822,-0.475906 -0.695727,-0.707209 -1.173781,-0.707209 -1.160822,0 -1.345404,0.423426 -1.345404,3.086316 0,2.180527 0.05846,2.4826 0.529167,2.734517 0.473704,0.253519 0.529167,0.553991 0.529167,2.866809 0,1.656695 0.113908,2.697516 0.3175,2.901108 0.383285,0.383286 1.17764,0.41641 1.398942,0.05833 z m 1.723141,-13.328421 c 0.353554,-0.623515 0.352647,-0.779335 -0.0083,-1.427518 -0.559005,-1.003819 -2.127513,-1.167449 -2.744672,-0.28633 -0.551836,0.787855 -0.535681,1.626651 0.04101,2.129027 1.017989,0.886814 2.064555,0.726594 2.711979,-0.415179 z m -11.867894,11.14019 c -1.39027,-1.862053 -2.079085,-3.289702 -2.549115,-5.283337 -1.074111,-4.555846 0.204694,-9.00514 3.564282,-12.401062 7.277889,-7.356599 19.444755,-3.9008 22.095434,6.275846 0.923661,3.546171 -0.02235,8.26406 -2.195092,10.947288 -0.498306,0.615382 -0.491957,0.537826 0.09768,-1.19315 3.030143,-8.89549 -5.085205,-17.443864 -13.94607,-14.690216 -3.166843,0.984145 -5.567532,3.115362 -7.032146,6.242804 -0.671152,1.433133 -0.734787,1.835273 -0.734787,4.643464 0,3.018797 0.01752,3.108599 0.967894,4.960938 0.532342,1.037568 0.923152,1.886488 0.868467,1.886488 -0.05468,0 -0.56613,-0.625079 -1.136547,-1.389063 z"
       id="path3737"
       inkscape:connector-curvature="0" />
  </g>
</svg>
